# xmcd
#
# Track frame offsets:
# 150
# 17379
# 35688
# 53241
# 70125
# 82637
# 108936
#
# Disc length: 4440 seconds
#
# Revision: 1
# Processed by: cddbd v1.5.2PL0 Copyright (c) Steve Scherf et al.
# Submitted via: CedeCatalogueitor 2.6.0.6 http://personales.ya.com/cdcatalogueitor
#
DISCID=48115607
DTITLE=Nick Cave and The Bad Seeds - B-sides and Rarities Demo
DYEAR=1900
DGENRE=
TTITLE0=Come Into My Sleep
TTITLE1=Good Good Day
TTITLE2=Rainy Night In Soho
TTITLE3=There's No Night Out In The Jail
TTITLE4=Blue Bird
TTITLE5=Everything Must Converge
TTITLE6=
EXTD=
EXTT0=
EXTT1=
EXTT2=
EXTT3=
EXTT4=
EXTT5=
EXTT6=
PLAYORDER=
